<svg width="33" height="29" viewBox="0 0 33 29" fill="none" xmlns="http://www.w3.org/2000/svg">
<path d="M27.329 20.8079L27.8231 19.9375L29.3907 20.8252L27.8048 21.6864L27.329 20.8079ZM4.59216 14.5713C4.59793 14.0191 5.05031 13.5751 5.60258 13.5798C6.15484 13.5844 6.59786 14.0359 6.59209 14.5881L4.59216 14.5713ZM21.0501 16.102L27.8231 19.9375L26.8348 21.6783L20.0618 17.8428L21.0501 16.102ZM27.8048 21.6864L20.9529 25.4076L20.0011 23.6506L26.8531 19.9294L27.8048 21.6864ZM27.3185 21.8079L11.5183 21.6753L11.5392 19.6754L27.3394 19.808L27.3185 21.8079ZM11.5183 21.6753C7.64261 21.6428 4.55187 18.4272 4.59216 14.5713L6.59209 14.5881C6.56314 17.3593 8.78771 19.6524 11.5392 19.6754L11.5183 21.6753Z" fill="#273D51"/>
<path d="M5.33333 7.91667L4.8228 8.77652L3.37462 7.91667L4.8228 7.05681L5.33333 7.91667ZM27.6667 14.25C27.6667 14.8023 27.219 15.25 26.6667 15.25C26.1144 15.25 25.6667 14.8023 25.6667 14.25L27.6667 14.25ZM11.4895 12.7349L4.8228 8.77652L5.84387 7.05681L12.5105 11.0151L11.4895 12.7349ZM4.8228 7.05681L11.4895 3.09848L12.5105 4.81819L5.84387 8.77652L4.8228 7.05681ZM5.33333 6.91667L20.6667 6.91667L20.6667 8.91667L5.33334 8.91667L5.33333 6.91667ZM27.6667 13.9167L27.6667 14.25L25.6667 14.25L25.6667 13.9167L27.6667 13.9167ZM20.6667 6.91667C24.5327 6.91667 27.6667 10.0507 27.6667 13.9167L25.6667 13.9167C25.6667 11.1552 23.4281 8.91667 20.6667 8.91667L20.6667 6.91667Z" fill="#273D51"/>
</svg>
