<svg width="56" height="37" viewBox="0 0 56 37" fill="none" xmlns="http://www.w3.org/2000/svg">
<path d="M44 26C44 26.9428 44 27.4142 43.7071 27.7071C43.4142 28 42.9428 28 42 28L26.7985 28C26.4042 28 26.207 28 26.0285 27.9287C25.8499 27.8574 25.707 27.7216 25.4211 27.45L17.5263 19.95C16.81 19.2695 16.4519 18.9293 16.4519 18.5C16.4519 18.0707 16.81 17.7305 17.5263 17.05L25.4211 9.55C25.707 9.27839 25.8499 9.14258 26.0285 9.07129C26.207 9 26.4042 9 26.7986 9L42 9C42.9428 9 43.4142 9 43.7071 9.29289C44 9.58579 44 10.0572 44 11V26Z" stroke="#319CFF" stroke-width="2"/>
<path d="M30.0001 23.9685L39.0001 12.9685" stroke="#319CFF" stroke-width="2" stroke-linecap="round" stroke-linejoin="round"/>
<path d="M39.0001 23.9685L30.0001 12.9685" stroke="#319CFF" stroke-width="2" stroke-linecap="round" stroke-linejoin="round"/>
</svg>
