<svg width="104" height="16" viewBox="0 0 104 16" fill="none" xmlns="http://www.w3.org/2000/svg">
<path d="M8.64258 11.2695C8.64258 10.7161 8.44727 10.293 8.05664 10C7.66602 9.70052 6.96289 9.38802 5.94727 9.0625C4.93164 8.73047 4.1276 8.40495 3.53516 8.08594C1.92057 7.21354 1.11328 6.03841 1.11328 4.56055C1.11328 3.79232 1.32812 3.10872 1.75781 2.50977C2.19401 1.9043 2.81576 1.43229 3.62305 1.09375C4.43685 0.755208 5.34831 0.585938 6.35742 0.585938C7.37305 0.585938 8.27799 0.771484 9.07227 1.14258C9.86654 1.50716 10.4818 2.02474 10.918 2.69531C11.3607 3.36589 11.582 4.1276 11.582 4.98047H8.65234C8.65234 4.32943 8.44727 3.82487 8.03711 3.4668C7.62695 3.10221 7.05078 2.91992 6.30859 2.91992C5.59245 2.91992 5.03581 3.07292 4.63867 3.37891C4.24154 3.67839 4.04297 4.07552 4.04297 4.57031C4.04297 5.03255 4.27409 5.41992 4.73633 5.73242C5.20508 6.04492 5.89193 6.33789 6.79688 6.61133C8.46354 7.11263 9.67773 7.73438 10.4395 8.47656C11.2012 9.21875 11.582 10.1432 11.582 11.25C11.582 12.4805 11.1165 13.4473 10.1855 14.1504C9.25456 14.847 8.0013 15.1953 6.42578 15.1953C5.33203 15.1953 4.33594 14.9967 3.4375 14.5996C2.53906 14.196 1.85221 13.6458 1.37695 12.9492C0.908203 12.2526 0.673828 11.4453 0.673828 10.5273H3.61328C3.61328 12.0964 4.55078 12.8809 6.42578 12.8809C7.1224 12.8809 7.66602 12.7409 8.05664 12.4609C8.44727 12.1745 8.64258 11.7773 8.64258 11.2695ZM24.7363 10.2637C24.6257 11.7936 24.0592 12.998 23.0371 13.877C22.0215 14.7559 20.6803 15.1953 19.0137 15.1953C17.1908 15.1953 15.7552 14.5833 14.707 13.3594C13.6654 12.1289 13.1445 10.4427 13.1445 8.30078V7.43164C13.1445 6.06445 13.3854 4.86003 13.8672 3.81836C14.349 2.77669 15.0358 1.97917 15.9277 1.42578C16.8262 0.865885 17.8678 0.585938 19.0527 0.585938C20.6934 0.585938 22.015 1.02539 23.0176 1.9043C24.0202 2.7832 24.5996 4.01693 24.7559 5.60547H21.8262C21.7546 4.6875 21.4974 4.02344 21.0547 3.61328C20.6185 3.19661 19.9512 2.98828 19.0527 2.98828C18.0762 2.98828 17.3438 3.33984 16.8555 4.04297C16.3737 4.73958 16.1263 5.82357 16.1133 7.29492V8.36914C16.1133 9.9056 16.3444 11.0286 16.8066 11.7383C17.2754 12.4479 18.0111 12.8027 19.0137 12.8027C19.9186 12.8027 20.5924 12.5977 21.0352 12.1875C21.4844 11.7708 21.7415 11.1296 21.8066 10.2637H24.7363ZM29.7754 15H26.8457V0.78125H29.7754V15ZM41.0547 8.83789H35.4297V12.6465H42.0312V15H32.5V0.78125H42.0117V3.1543H35.4297V6.54297H41.0547V8.83789ZM55.3125 15H52.3828L46.6797 5.64453V15H43.75V0.78125H46.6797L52.3926 10.1562V0.78125H55.3125V15ZM68.2812 3.1543H63.9258V15H60.9961V3.1543H56.6992V0.78125H68.2812V3.1543ZM73.0762 15H70.1465V0.78125H73.0762V15ZM84.3555 9.18945H78.7305V15H75.8008V0.78125H85.0586V3.1543H78.7305V6.82617H84.3555V9.18945ZM89.873 15H86.9434V0.78125H89.873V15ZM103.76 10.2637C103.649 11.7936 103.083 12.998 102.061 13.877C101.045 14.7559 99.7038 15.1953 98.0371 15.1953C96.2142 15.1953 94.7786 14.5833 93.7305 13.3594C92.6888 12.1289 92.168 10.4427 92.168 8.30078V7.43164C92.168 6.06445 92.4089 4.86003 92.8906 3.81836C93.3724 2.77669 94.0592 1.97917 94.9512 1.42578C95.8496 0.865885 96.8913 0.585938 98.0762 0.585938C99.7168 0.585938 101.038 1.02539 102.041 1.9043C103.044 2.7832 103.623 4.01693 103.779 5.60547H100.85C100.778 4.6875 100.521 4.02344 100.078 3.61328C99.6419 3.19661 98.9746 2.98828 98.0762 2.98828C97.0996 2.98828 96.3672 3.33984 95.8789 4.04297C95.3971 4.73958 95.1497 5.82357 95.1367 7.29492V8.36914C95.1367 9.9056 95.3678 11.0286 95.8301 11.7383C96.2988 12.4479 97.0345 12.8027 98.0371 12.8027C98.9421 12.8027 99.6159 12.5977 100.059 12.1875C100.508 11.7708 100.765 11.1296 100.83 10.2637H103.76Z" fill="#355370"/>
</svg>
