<svg width="17" height="19" viewBox="0 0 17 19" fill="none" xmlns="http://www.w3.org/2000/svg">
<path d="M14.0974 14.3954L13.7255 15.3237L14.0974 14.3954ZM15.2319 14.8943L14.6115 15.6787L15.2319 14.8943ZM15.1538 16.5189L15.6961 17.3591L15.1538 16.5189ZM10.9351 3.6012L11.7491 4.18207L10.9351 3.6012ZM11.6211 2.56893L12.5666 2.89452L11.6211 2.56893ZM10.6787 1.24335L10.6819 0.243355L10.6787 1.24335ZM10.6215 9.5534C10.1084 7.80198 10.5303 5.88992 11.7491 4.18207L10.1211 3.02033C8.62274 5.12002 7.98245 7.65906 8.70215 10.1157L10.6215 9.5534ZM14.4692 13.4671C12.5216 12.6869 11.1346 11.3048 10.6215 9.5534L8.70215 10.1157C9.42184 12.5723 11.331 14.3645 13.7255 15.3237L14.4692 13.4671ZM14.1007 15.8283C8.9325 17.3424 4.23377 15.2236 3.20882 11.725L1.28949 12.2873C2.74888 17.2688 8.91413 19.4318 14.663 17.7477L14.1007 15.8283ZM3.20882 11.725C2.18386 8.2264 4.99649 3.90708 10.1647 2.39301L9.6024 0.473674C3.85354 2.15786 -0.169905 7.30576 1.28949 12.2873L3.20882 11.725ZM13.7255 15.3237C14.0712 15.4622 14.3119 15.5587 14.4816 15.6318C14.5658 15.6681 14.6185 15.6926 14.6499 15.7086C14.6907 15.7293 14.6624 15.7189 14.6115 15.6787L15.8522 14.11C15.6732 13.9684 15.4311 13.8632 15.2727 13.7949C15.0737 13.7092 14.804 13.6012 14.4692 13.4671L13.7255 15.3237ZM14.663 17.7477C14.8716 17.6865 15.0567 17.6325 15.2035 17.5831C15.3414 17.5367 15.5252 17.4694 15.6961 17.3591L14.6115 15.6787C14.6606 15.647 14.6751 15.6508 14.5658 15.6875C14.4654 15.7213 14.3255 15.7625 14.1007 15.8283L14.663 17.7477ZM14.6115 15.6787C14.6194 15.6848 14.623 15.6892 14.6242 15.6907C14.6255 15.6924 14.6254 15.6926 14.6249 15.6913C14.6236 15.6886 14.6225 15.6842 14.6228 15.6792C14.623 15.6742 14.6245 15.67 14.626 15.6673C14.6267 15.6661 14.6268 15.6663 14.6253 15.6679C14.624 15.6693 14.6199 15.6733 14.6115 15.6787L15.6961 17.3591C16.8633 16.6057 16.9418 14.9718 15.8522 14.11L14.6115 15.6787ZM11.7491 4.18207C11.9585 3.88853 12.1274 3.65212 12.2487 3.47252C12.3452 3.3296 12.4922 3.11038 12.5666 2.89452L10.6755 2.24334C10.6966 2.18206 10.7149 2.15804 10.6917 2.19749C10.6739 2.22785 10.6428 2.27691 10.5914 2.35296C10.488 2.50602 10.3374 2.71715 10.1211 3.02033L11.7491 4.18207ZM10.1647 2.39301C10.3895 2.32715 10.5295 2.28632 10.6322 2.26059C10.7441 2.23257 10.7339 2.24353 10.6755 2.24334L10.6819 0.243355C10.4785 0.242708 10.2874 0.285179 10.1463 0.320531C9.996 0.358169 9.811 0.412562 9.6024 0.473674L10.1647 2.39301ZM12.5666 2.89452C13.0189 1.58101 12.0711 0.247771 10.6819 0.243355L10.6755 2.24334C10.6855 2.24338 10.691 2.24452 10.693 2.245C10.695 2.24549 10.6951 2.24573 10.6938 2.24509C10.6911 2.24369 10.6876 2.24089 10.6847 2.23683C10.6818 2.23276 10.6803 2.22851 10.6799 2.22549C10.6797 2.22411 10.6799 2.22424 10.6797 2.22632C10.6795 2.22833 10.6788 2.23393 10.6755 2.24334L12.5666 2.89452Z" fill="#355370"/>
</svg>
